# xmcd
#
# Track frame offsets:
#	150
#	11851
#	24259
#	36072
#	46512
#	63147
#	71268
#	83756
#	95180
#	103473
#	117660
#	131325
#	144385
#	161250
#	165063
#	176407
#	188716
#	201267
#	214887
#	226444
#
# Disc length: 3160 seconds
#
# Revision: 1
# Processed by: cddbd v1.5.1PL2 Copyright (c) Steve Scherf et al.
# Submitted via: audiograbber 1.83.01
#
DISCID=050c5614
DTITLE=Johnny Cash - The Best fo Johnny Cash
DYEAR=1900
DGENRE=
TTITLE0=I Walk the Line
TTITLE1=Falsom Prison Blues
TTITLE2=Ring of Fire
TTITLE3=Bonanza
TTITLE4=The Streets of Laredo
TTITLE5=Five Feet High And Rising
TTITLE6=My Grandfadthers Clock
TTITLE7=In Them Old Cottonfields At Home
TTITLE8=Im Free From The Chain Gang Now
TTITLE9=Orange Blossom Special
TTITLE10=It Ain Me Babe
TTITLE11=If I Were A Carpenter
TTITLE12=A Boy Named Sue
TTITLE13=Six Days On The Road
TTITLE14=Clementine
TTITLE15=The Lady Came From Baltimore
TTITLE16=My Old Kentucky Home
TTITLE17=Dont Take Your Guns To Town
TTITLE18=A Thing Called Love
TTITLE19=If I Head Hammer
EXTD=Schallplatte
EXTT0=
EXTT1=
EXTT2=
EXTT3=
EXTT4=
EXTT5=
EXTT6=
EXTT7=
EXTT8=
EXTT9=
EXTT10=
EXTT11=
EXTT12=
EXTT13=
EXTT14=
EXTT15=
EXTT16=
EXTT17=
EXTT18=
EXTT19=
PLAYORDER=
